<mxfile host="app.diagrams.net" modified="2023-08-29T14:07:28.603Z" agent="Mozilla/5.0 (Windows NT 10.0; Win64; x64) AppleWebKit/537.36 (KHTML, like Gecko) Chrome/116.0.0.0 Safari/537.36" etag="nTlt9jHPPJkxTHvwQNL4" version="21.6.9" type="device">
  <diagram name="PÃ¡gina-1" id="dmyrxfJFCrGOGcIMU8Im">
    <mxGraphModel dx="2261" dy="758" grid="1" gridSize="10" guides="1" tooltips="1" connect="1" arrows="1" fold="1" page="1" pageScale="1" pageWidth="827" pageHeight="1169" math="0" shadow="0">
      <root>
        <mxCell id="0" />
        <mxCell id="1" parent="0" />
        <mxCell id="IgmlVVhqipTiIN82mc1l-1" value="CarBrand" style="swimlane;fontStyle=1;align=center;verticalAlign=top;childLayout=stackLayout;horizontal=1;startSize=26;horizontalStack=0;resizeParent=1;resizeParentMax=0;resizeLast=0;collapsible=1;marginBottom=0;whiteSpace=wrap;html=1;" vertex="1" parent="1">
          <mxGeometry x="-280" y="40" width="160" height="110" as="geometry" />
        </mxCell>
        <mxCell id="IgmlVVhqipTiIN82mc1l-2" value="+ name&lt;br&gt;+ logo" style="text;strokeColor=none;fillColor=none;align=left;verticalAlign=top;spacingLeft=4;spacingRight=4;overflow=hidden;rotatable=0;points=[[0,0.5],[1,0.5]];portConstraint=eastwest;whiteSpace=wrap;html=1;" vertex="1" parent="IgmlVVhqipTiIN82mc1l-1">
          <mxGeometry y="26" width="160" height="34" as="geometry" />
        </mxCell>
        <mxCell id="IgmlVVhqipTiIN82mc1l-3" value="" style="line;strokeWidth=1;fillColor=none;align=left;verticalAlign=middle;spacingTop=-1;spacingLeft=3;spacingRight=3;rotatable=0;labelPosition=right;points=[];portConstraint=eastwest;strokeColor=inherit;" vertex="1" parent="IgmlVVhqipTiIN82mc1l-1">
          <mxGeometry y="60" width="160" height="50" as="geometry" />
        </mxCell>
        <mxCell id="IgmlVVhqipTiIN82mc1l-5" value="CarModel" style="swimlane;fontStyle=1;align=center;verticalAlign=top;childLayout=stackLayout;horizontal=1;startSize=26;horizontalStack=0;resizeParent=1;resizeParentMax=0;resizeLast=0;collapsible=1;marginBottom=0;whiteSpace=wrap;html=1;" vertex="1" parent="1">
          <mxGeometry x="-40" y="40" width="160" height="140" as="geometry" />
        </mxCell>
        <mxCell id="IgmlVVhqipTiIN82mc1l-6" value="+ id&lt;br&gt;+ name&lt;br&gt;+productionFacility&lt;br&gt;+ carBrand" style="text;strokeColor=none;fillColor=none;align=left;verticalAlign=top;spacingLeft=4;spacingRight=4;overflow=hidden;rotatable=0;points=[[0,0.5],[1,0.5]];portConstraint=eastwest;whiteSpace=wrap;html=1;" vertex="1" parent="IgmlVVhqipTiIN82mc1l-5">
          <mxGeometry y="26" width="160" height="64" as="geometry" />
        </mxCell>
        <mxCell id="IgmlVVhqipTiIN82mc1l-7" value="" style="line;strokeWidth=1;fillColor=none;align=left;verticalAlign=middle;spacingTop=-1;spacingLeft=3;spacingRight=3;rotatable=0;labelPosition=right;points=[];portConstraint=eastwest;strokeColor=inherit;" vertex="1" parent="IgmlVVhqipTiIN82mc1l-5">
          <mxGeometry y="90" width="160" height="50" as="geometry" />
        </mxCell>
        <mxCell id="IgmlVVhqipTiIN82mc1l-8" value="MaintainanceType" style="swimlane;fontStyle=1;align=center;verticalAlign=top;childLayout=stackLayout;horizontal=1;startSize=26;horizontalStack=0;resizeParent=1;resizeParentMax=0;resizeLast=0;collapsible=1;marginBottom=0;whiteSpace=wrap;html=1;" vertex="1" parent="1">
          <mxGeometry x="320" y="40" width="160" height="110" as="geometry" />
        </mxCell>
        <mxCell id="IgmlVVhqipTiIN82mc1l-9" value="+ name&lt;br&gt;" style="text;strokeColor=none;fillColor=none;align=left;verticalAlign=top;spacingLeft=4;spacingRight=4;overflow=hidden;rotatable=0;points=[[0,0.5],[1,0.5]];portConstraint=eastwest;whiteSpace=wrap;html=1;" vertex="1" parent="IgmlVVhqipTiIN82mc1l-8">
          <mxGeometry y="26" width="160" height="34" as="geometry" />
        </mxCell>
        <mxCell id="IgmlVVhqipTiIN82mc1l-10" value="" style="line;strokeWidth=1;fillColor=none;align=left;verticalAlign=middle;spacingTop=-1;spacingLeft=3;spacingRight=3;rotatable=0;labelPosition=right;points=[];portConstraint=eastwest;strokeColor=inherit;" vertex="1" parent="IgmlVVhqipTiIN82mc1l-8">
          <mxGeometry y="60" width="160" height="50" as="geometry" />
        </mxCell>
        <mxCell id="IgmlVVhqipTiIN82mc1l-16" value="ProductionFacility" style="swimlane;fontStyle=1;align=center;verticalAlign=top;childLayout=stackLayout;horizontal=1;startSize=26;horizontalStack=0;resizeParent=1;resizeParentMax=0;resizeLast=0;collapsible=1;marginBottom=0;whiteSpace=wrap;html=1;" vertex="1" parent="1">
          <mxGeometry x="-280" y="320" width="160" height="110" as="geometry" />
        </mxCell>
        <mxCell id="IgmlVVhqipTiIN82mc1l-17" value="+ name&lt;br&gt;" style="text;strokeColor=none;fillColor=none;align=left;verticalAlign=top;spacingLeft=4;spacingRight=4;overflow=hidden;rotatable=0;points=[[0,0.5],[1,0.5]];portConstraint=eastwest;whiteSpace=wrap;html=1;" vertex="1" parent="IgmlVVhqipTiIN82mc1l-16">
          <mxGeometry y="26" width="160" height="34" as="geometry" />
        </mxCell>
        <mxCell id="IgmlVVhqipTiIN82mc1l-18" value="" style="line;strokeWidth=1;fillColor=none;align=left;verticalAlign=middle;spacingTop=-1;spacingLeft=3;spacingRight=3;rotatable=0;labelPosition=right;points=[];portConstraint=eastwest;strokeColor=inherit;" vertex="1" parent="IgmlVVhqipTiIN82mc1l-16">
          <mxGeometry y="60" width="160" height="50" as="geometry" />
        </mxCell>
        <mxCell id="IgmlVVhqipTiIN82mc1l-19" value="Vehicle" style="swimlane;fontStyle=1;align=center;verticalAlign=top;childLayout=stackLayout;horizontal=1;startSize=26;horizontalStack=0;resizeParent=1;resizeParentMax=0;resizeLast=0;collapsible=1;marginBottom=0;whiteSpace=wrap;html=1;" vertex="1" parent="1">
          <mxGeometry x="-40" y="320" width="160" height="160" as="geometry" />
        </mxCell>
        <mxCell id="IgmlVVhqipTiIN82mc1l-20" value="+ plateNumber:string&lt;br&gt;+ engineNumber:String&lt;br&gt;+ carModel&lt;br&gt;+ dealer&lt;br&gt;+ technician" style="text;strokeColor=none;fillColor=none;align=left;verticalAlign=top;spacingLeft=4;spacingRight=4;overflow=hidden;rotatable=0;points=[[0,0.5],[1,0.5]];portConstraint=eastwest;whiteSpace=wrap;html=1;" vertex="1" parent="IgmlVVhqipTiIN82mc1l-19">
          <mxGeometry y="26" width="160" height="84" as="geometry" />
        </mxCell>
        <mxCell id="IgmlVVhqipTiIN82mc1l-21" value="" style="line;strokeWidth=1;fillColor=none;align=left;verticalAlign=middle;spacingTop=-1;spacingLeft=3;spacingRight=3;rotatable=0;labelPosition=right;points=[];portConstraint=eastwest;strokeColor=inherit;" vertex="1" parent="IgmlVVhqipTiIN82mc1l-19">
          <mxGeometry y="110" width="160" height="50" as="geometry" />
        </mxCell>
        <mxCell id="IgmlVVhqipTiIN82mc1l-22" value="Maintainance" style="swimlane;fontStyle=1;align=center;verticalAlign=top;childLayout=stackLayout;horizontal=1;startSize=26;horizontalStack=0;resizeParent=1;resizeParentMax=0;resizeLast=0;collapsible=1;marginBottom=0;whiteSpace=wrap;html=1;" vertex="1" parent="1">
          <mxGeometry x="320" y="320" width="160" height="190" as="geometry" />
        </mxCell>
        <mxCell id="IgmlVVhqipTiIN82mc1l-23" value="+ id&lt;br&gt;+ name&lt;br&gt;+ maintainanceType&lt;br&gt;+ services: Service[*]&lt;br&gt;+ serviceCenter&lt;br&gt;+ total&lt;br&gt;+ term&lt;br&gt;" style="text;strokeColor=none;fillColor=none;align=left;verticalAlign=top;spacingLeft=4;spacingRight=4;overflow=hidden;rotatable=0;points=[[0,0.5],[1,0.5]];portConstraint=eastwest;whiteSpace=wrap;html=1;" vertex="1" parent="IgmlVVhqipTiIN82mc1l-22">
          <mxGeometry y="26" width="160" height="114" as="geometry" />
        </mxCell>
        <mxCell id="IgmlVVhqipTiIN82mc1l-24" value="" style="line;strokeWidth=1;fillColor=none;align=left;verticalAlign=middle;spacingTop=-1;spacingLeft=3;spacingRight=3;rotatable=0;labelPosition=right;points=[];portConstraint=eastwest;strokeColor=inherit;" vertex="1" parent="IgmlVVhqipTiIN82mc1l-22">
          <mxGeometry y="140" width="160" height="50" as="geometry" />
        </mxCell>
        <mxCell id="IgmlVVhqipTiIN82mc1l-25" value="ServiceList" style="swimlane;fontStyle=1;align=center;verticalAlign=top;childLayout=stackLayout;horizontal=1;startSize=26;horizontalStack=0;resizeParent=1;resizeParentMax=0;resizeLast=0;collapsible=1;marginBottom=0;whiteSpace=wrap;html=1;" vertex="1" parent="1">
          <mxGeometry x="600" y="360" width="170" height="190" as="geometry" />
        </mxCell>
        <mxCell id="IgmlVVhqipTiIN82mc1l-26" value="+ id&lt;br&gt;+ service&lt;br&gt;+ maintainance&lt;br&gt;+ term&lt;br&gt;+ parts:maintainanceParts[*]" style="text;strokeColor=none;fillColor=none;align=left;verticalAlign=top;spacingLeft=4;spacingRight=4;overflow=hidden;rotatable=0;points=[[0,0.5],[1,0.5]];portConstraint=eastwest;whiteSpace=wrap;html=1;" vertex="1" parent="IgmlVVhqipTiIN82mc1l-25">
          <mxGeometry y="26" width="170" height="114" as="geometry" />
        </mxCell>
        <mxCell id="IgmlVVhqipTiIN82mc1l-27" value="" style="line;strokeWidth=1;fillColor=none;align=left;verticalAlign=middle;spacingTop=-1;spacingLeft=3;spacingRight=3;rotatable=0;labelPosition=right;points=[];portConstraint=eastwest;strokeColor=inherit;" vertex="1" parent="IgmlVVhqipTiIN82mc1l-25">
          <mxGeometry y="140" width="170" height="50" as="geometry" />
        </mxCell>
        <mxCell id="IgmlVVhqipTiIN82mc1l-31" value="ServiceCenter" style="swimlane;fontStyle=1;align=center;verticalAlign=top;childLayout=stackLayout;horizontal=1;startSize=26;horizontalStack=0;resizeParent=1;resizeParentMax=0;resizeLast=0;collapsible=1;marginBottom=0;whiteSpace=wrap;html=1;" vertex="1" parent="1">
          <mxGeometry x="960" y="320" width="160" height="110" as="geometry" />
        </mxCell>
        <mxCell id="IgmlVVhqipTiIN82mc1l-32" value="+ name&lt;br&gt;" style="text;strokeColor=none;fillColor=none;align=left;verticalAlign=top;spacingLeft=4;spacingRight=4;overflow=hidden;rotatable=0;points=[[0,0.5],[1,0.5]];portConstraint=eastwest;whiteSpace=wrap;html=1;" vertex="1" parent="IgmlVVhqipTiIN82mc1l-31">
          <mxGeometry y="26" width="160" height="34" as="geometry" />
        </mxCell>
        <mxCell id="IgmlVVhqipTiIN82mc1l-33" value="" style="line;strokeWidth=1;fillColor=none;align=left;verticalAlign=middle;spacingTop=-1;spacingLeft=3;spacingRight=3;rotatable=0;labelPosition=right;points=[];portConstraint=eastwest;strokeColor=inherit;" vertex="1" parent="IgmlVVhqipTiIN82mc1l-31">
          <mxGeometry y="60" width="160" height="50" as="geometry" />
        </mxCell>
        <mxCell id="IgmlVVhqipTiIN82mc1l-34" value="Service" style="swimlane;fontStyle=1;align=center;verticalAlign=top;childLayout=stackLayout;horizontal=1;startSize=26;horizontalStack=0;resizeParent=1;resizeParentMax=0;resizeLast=0;collapsible=1;marginBottom=0;whiteSpace=wrap;html=1;" vertex="1" parent="1">
          <mxGeometry x="960" y="520" width="160" height="150" as="geometry" />
        </mxCell>
        <mxCell id="IgmlVVhqipTiIN82mc1l-35" value="+ id&lt;br&gt;+ description&lt;br&gt;+ serviceCenter&lt;br&gt;+ price" style="text;strokeColor=none;fillColor=none;align=left;verticalAlign=top;spacingLeft=4;spacingRight=4;overflow=hidden;rotatable=0;points=[[0,0.5],[1,0.5]];portConstraint=eastwest;whiteSpace=wrap;html=1;" vertex="1" parent="IgmlVVhqipTiIN82mc1l-34">
          <mxGeometry y="26" width="160" height="74" as="geometry" />
        </mxCell>
        <mxCell id="IgmlVVhqipTiIN82mc1l-36" value="" style="line;strokeWidth=1;fillColor=none;align=left;verticalAlign=middle;spacingTop=-1;spacingLeft=3;spacingRight=3;rotatable=0;labelPosition=right;points=[];portConstraint=eastwest;strokeColor=inherit;" vertex="1" parent="IgmlVVhqipTiIN82mc1l-34">
          <mxGeometry y="100" width="160" height="50" as="geometry" />
        </mxCell>
        <mxCell id="IgmlVVhqipTiIN82mc1l-40" value="MaintainanceParts" style="swimlane;fontStyle=1;align=center;verticalAlign=top;childLayout=stackLayout;horizontal=1;startSize=26;horizontalStack=0;resizeParent=1;resizeParentMax=0;resizeLast=0;collapsible=1;marginBottom=0;whiteSpace=wrap;html=1;" vertex="1" parent="1">
          <mxGeometry x="600" y="680" width="160" height="130" as="geometry" />
        </mxCell>
        <mxCell id="IgmlVVhqipTiIN82mc1l-41" value="+ id&lt;br&gt;+ serviceList&lt;br&gt;+ part" style="text;strokeColor=none;fillColor=none;align=left;verticalAlign=top;spacingLeft=4;spacingRight=4;overflow=hidden;rotatable=0;points=[[0,0.5],[1,0.5]];portConstraint=eastwest;whiteSpace=wrap;html=1;" vertex="1" parent="IgmlVVhqipTiIN82mc1l-40">
          <mxGeometry y="26" width="160" height="54" as="geometry" />
        </mxCell>
        <mxCell id="IgmlVVhqipTiIN82mc1l-42" value="" style="line;strokeWidth=1;fillColor=none;align=left;verticalAlign=middle;spacingTop=-1;spacingLeft=3;spacingRight=3;rotatable=0;labelPosition=right;points=[];portConstraint=eastwest;strokeColor=inherit;" vertex="1" parent="IgmlVVhqipTiIN82mc1l-40">
          <mxGeometry y="80" width="160" height="50" as="geometry" />
        </mxCell>
        <mxCell id="IgmlVVhqipTiIN82mc1l-43" value="Parts" style="swimlane;fontStyle=1;align=center;verticalAlign=top;childLayout=stackLayout;horizontal=1;startSize=26;horizontalStack=0;resizeParent=1;resizeParentMax=0;resizeLast=0;collapsible=1;marginBottom=0;whiteSpace=wrap;html=1;" vertex="1" parent="1">
          <mxGeometry x="320" y="680" width="160" height="150" as="geometry" />
        </mxCell>
        <mxCell id="IgmlVVhqipTiIN82mc1l-44" value="+ id&lt;br&gt;+ name&lt;br&gt;+ assembly&lt;br&gt;+ vendor&lt;br&gt;" style="text;strokeColor=none;fillColor=none;align=left;verticalAlign=top;spacingLeft=4;spacingRight=4;overflow=hidden;rotatable=0;points=[[0,0.5],[1,0.5]];portConstraint=eastwest;whiteSpace=wrap;html=1;" vertex="1" parent="IgmlVVhqipTiIN82mc1l-43">
          <mxGeometry y="26" width="160" height="74" as="geometry" />
        </mxCell>
        <mxCell id="IgmlVVhqipTiIN82mc1l-45" value="" style="line;strokeWidth=1;fillColor=none;align=left;verticalAlign=middle;spacingTop=-1;spacingLeft=3;spacingRight=3;rotatable=0;labelPosition=right;points=[];portConstraint=eastwest;strokeColor=inherit;" vertex="1" parent="IgmlVVhqipTiIN82mc1l-43">
          <mxGeometry y="100" width="160" height="20" as="geometry" />
        </mxCell>
        <mxCell id="IgmlVVhqipTiIN82mc1l-46" value="&amp;nbsp;+ isAssembly()" style="text;html=1;align=left;verticalAlign=middle;resizable=0;points=[];autosize=1;strokeColor=none;fillColor=none;" vertex="1" parent="IgmlVVhqipTiIN82mc1l-43">
          <mxGeometry y="120" width="160" height="30" as="geometry" />
        </mxCell>
        <mxCell id="IgmlVVhqipTiIN82mc1l-47" value="Vendor" style="swimlane;fontStyle=1;align=center;verticalAlign=top;childLayout=stackLayout;horizontal=1;startSize=26;horizontalStack=0;resizeParent=1;resizeParentMax=0;resizeLast=0;collapsible=1;marginBottom=0;whiteSpace=wrap;html=1;" vertex="1" parent="1">
          <mxGeometry x="320" y="920" width="160" height="130" as="geometry" />
        </mxCell>
        <mxCell id="IgmlVVhqipTiIN82mc1l-48" value="+ name" style="text;strokeColor=none;fillColor=none;align=left;verticalAlign=top;spacingLeft=4;spacingRight=4;overflow=hidden;rotatable=0;points=[[0,0.5],[1,0.5]];portConstraint=eastwest;whiteSpace=wrap;html=1;" vertex="1" parent="IgmlVVhqipTiIN82mc1l-47">
          <mxGeometry y="26" width="160" height="54" as="geometry" />
        </mxCell>
        <mxCell id="IgmlVVhqipTiIN82mc1l-49" value="" style="line;strokeWidth=1;fillColor=none;align=left;verticalAlign=middle;spacingTop=-1;spacingLeft=3;spacingRight=3;rotatable=0;labelPosition=right;points=[];portConstraint=eastwest;strokeColor=inherit;" vertex="1" parent="IgmlVVhqipTiIN82mc1l-47">
          <mxGeometry y="80" width="160" height="50" as="geometry" />
        </mxCell>
        <mxCell id="IgmlVVhqipTiIN82mc1l-50" value="Assembly" style="swimlane;fontStyle=1;align=center;verticalAlign=top;childLayout=stackLayout;horizontal=1;startSize=26;horizontalStack=0;resizeParent=1;resizeParentMax=0;resizeLast=0;collapsible=1;marginBottom=0;whiteSpace=wrap;html=1;" vertex="1" parent="1">
          <mxGeometry x="600" y="920" width="160" height="130" as="geometry" />
        </mxCell>
        <mxCell id="IgmlVVhqipTiIN82mc1l-51" value="+ id&lt;br&gt;+ assembly&lt;br&gt;+ part" style="text;strokeColor=none;fillColor=none;align=left;verticalAlign=top;spacingLeft=4;spacingRight=4;overflow=hidden;rotatable=0;points=[[0,0.5],[1,0.5]];portConstraint=eastwest;whiteSpace=wrap;html=1;" vertex="1" parent="IgmlVVhqipTiIN82mc1l-50">
          <mxGeometry y="26" width="160" height="54" as="geometry" />
        </mxCell>
        <mxCell id="IgmlVVhqipTiIN82mc1l-52" value="" style="line;strokeWidth=1;fillColor=none;align=left;verticalAlign=middle;spacingTop=-1;spacingLeft=3;spacingRight=3;rotatable=0;labelPosition=right;points=[];portConstraint=eastwest;strokeColor=inherit;" vertex="1" parent="IgmlVVhqipTiIN82mc1l-50">
          <mxGeometry y="80" width="160" height="50" as="geometry" />
        </mxCell>
        <mxCell id="IgmlVVhqipTiIN82mc1l-53" value="Role" style="swimlane;fontStyle=1;align=center;verticalAlign=top;childLayout=stackLayout;horizontal=1;startSize=26;horizontalStack=0;resizeParent=1;resizeParentMax=0;resizeLast=0;collapsible=1;marginBottom=0;whiteSpace=wrap;html=1;" vertex="1" parent="1">
          <mxGeometry x="-39" y="920" width="160" height="130" as="geometry" />
        </mxCell>
        <mxCell id="IgmlVVhqipTiIN82mc1l-54" value="+ name" style="text;strokeColor=none;fillColor=none;align=left;verticalAlign=top;spacingLeft=4;spacingRight=4;overflow=hidden;rotatable=0;points=[[0,0.5],[1,0.5]];portConstraint=eastwest;whiteSpace=wrap;html=1;" vertex="1" parent="IgmlVVhqipTiIN82mc1l-53">
          <mxGeometry y="26" width="160" height="54" as="geometry" />
        </mxCell>
        <mxCell id="IgmlVVhqipTiIN82mc1l-55" value="" style="line;strokeWidth=1;fillColor=none;align=left;verticalAlign=middle;spacingTop=-1;spacingLeft=3;spacingRight=3;rotatable=0;labelPosition=right;points=[];portConstraint=eastwest;strokeColor=inherit;" vertex="1" parent="IgmlVVhqipTiIN82mc1l-53">
          <mxGeometry y="80" width="160" height="50" as="geometry" />
        </mxCell>
        <mxCell id="IgmlVVhqipTiIN82mc1l-60" value="Technician" style="swimlane;fontStyle=1;align=center;verticalAlign=top;childLayout=stackLayout;horizontal=1;startSize=26;horizontalStack=0;resizeParent=1;resizeParentMax=0;resizeLast=0;collapsible=1;marginBottom=0;whiteSpace=wrap;html=1;" vertex="1" parent="1">
          <mxGeometry x="-40" y="600" width="160" height="170" as="geometry" />
        </mxCell>
        <mxCell id="IgmlVVhqipTiIN82mc1l-61" value="+ login&lt;br&gt;+ password&lt;br&gt;+ role&lt;br&gt;+ firstName&lt;br&gt;+ secondName&lt;br&gt;+ lastName" style="text;strokeColor=none;fillColor=none;align=left;verticalAlign=top;spacingLeft=4;spacingRight=4;overflow=hidden;rotatable=0;points=[[0,0.5],[1,0.5]];portConstraint=eastwest;whiteSpace=wrap;html=1;" vertex="1" parent="IgmlVVhqipTiIN82mc1l-60">
          <mxGeometry y="26" width="160" height="94" as="geometry" />
        </mxCell>
        <mxCell id="IgmlVVhqipTiIN82mc1l-62" value="" style="line;strokeWidth=1;fillColor=none;align=left;verticalAlign=middle;spacingTop=-1;spacingLeft=3;spacingRight=3;rotatable=0;labelPosition=right;points=[];portConstraint=eastwest;strokeColor=inherit;" vertex="1" parent="IgmlVVhqipTiIN82mc1l-60">
          <mxGeometry y="120" width="160" height="20" as="geometry" />
        </mxCell>
        <mxCell id="IgmlVVhqipTiIN82mc1l-63" value="&amp;nbsp;+ auth()" style="text;html=1;align=left;verticalAlign=middle;resizable=0;points=[];autosize=1;strokeColor=none;fillColor=none;" vertex="1" parent="IgmlVVhqipTiIN82mc1l-60">
          <mxGeometry y="140" width="160" height="30" as="geometry" />
        </mxCell>
        <mxCell id="IgmlVVhqipTiIN82mc1l-64" value="Dealer" style="swimlane;fontStyle=1;align=center;verticalAlign=top;childLayout=stackLayout;horizontal=1;startSize=26;horizontalStack=0;resizeParent=1;resizeParentMax=0;resizeLast=0;collapsible=1;marginBottom=0;whiteSpace=wrap;html=1;" vertex="1" parent="1">
          <mxGeometry x="-280" y="550" width="160" height="150" as="geometry" />
        </mxCell>
        <mxCell id="IgmlVVhqipTiIN82mc1l-65" value="&lt;br&gt;+ name&lt;br&gt;" style="text;strokeColor=none;fillColor=none;align=left;verticalAlign=top;spacingLeft=4;spacingRight=4;overflow=hidden;rotatable=0;points=[[0,0.5],[1,0.5]];portConstraint=eastwest;whiteSpace=wrap;html=1;" vertex="1" parent="IgmlVVhqipTiIN82mc1l-64">
          <mxGeometry y="26" width="160" height="74" as="geometry" />
        </mxCell>
        <mxCell id="IgmlVVhqipTiIN82mc1l-66" value="" style="line;strokeWidth=1;fillColor=none;align=left;verticalAlign=middle;spacingTop=-1;spacingLeft=3;spacingRight=3;rotatable=0;labelPosition=right;points=[];portConstraint=eastwest;strokeColor=inherit;" vertex="1" parent="IgmlVVhqipTiIN82mc1l-64">
          <mxGeometry y="100" width="160" height="20" as="geometry" />
        </mxCell>
        <mxCell id="IgmlVVhqipTiIN82mc1l-67" value="&amp;nbsp;" style="text;html=1;align=left;verticalAlign=middle;resizable=0;points=[];autosize=1;strokeColor=none;fillColor=none;" vertex="1" parent="IgmlVVhqipTiIN82mc1l-64">
          <mxGeometry y="120" width="160" height="30" as="geometry" />
        </mxCell>
        <mxCell id="IgmlVVhqipTiIN82mc1l-68" value="" style="endArrow=none;html=1;rounded=0;exitX=1.019;exitY=0.882;exitDx=0;exitDy=0;exitPerimeter=0;" edge="1" parent="1" source="IgmlVVhqipTiIN82mc1l-2">
          <mxGeometry width="50" height="50" relative="1" as="geometry">
            <mxPoint x="-111" y="94.5" as="sourcePoint" />
            <mxPoint x="-41" y="95" as="targetPoint" />
          </mxGeometry>
        </mxCell>
        <mxCell id="IgmlVVhqipTiIN82mc1l-70" value="1" style="text;html=1;strokeColor=none;fillColor=none;align=center;verticalAlign=middle;whiteSpace=wrap;rounded=0;" vertex="1" parent="1">
          <mxGeometry x="-140" y="95" width="60" height="30" as="geometry" />
        </mxCell>
        <mxCell id="IgmlVVhqipTiIN82mc1l-72" value="*" style="text;html=1;strokeColor=none;fillColor=none;align=center;verticalAlign=middle;whiteSpace=wrap;rounded=0;" vertex="1" parent="1">
          <mxGeometry x="-70" y="65" width="40" height="30" as="geometry" />
        </mxCell>
        <mxCell id="IgmlVVhqipTiIN82mc1l-73" value="*" style="text;html=1;strokeColor=none;fillColor=none;align=center;verticalAlign=middle;whiteSpace=wrap;rounded=0;" vertex="1" parent="1">
          <mxGeometry x="-70" y="150" width="40" height="30" as="geometry" />
        </mxCell>
        <mxCell id="IgmlVVhqipTiIN82mc1l-74" value="" style="endArrow=none;html=1;rounded=0;" edge="1" parent="1">
          <mxGeometry width="50" height="50" relative="1" as="geometry">
            <mxPoint x="-200" y="170" as="sourcePoint" />
            <mxPoint x="-40" y="170" as="targetPoint" />
          </mxGeometry>
        </mxCell>
        <mxCell id="IgmlVVhqipTiIN82mc1l-75" value="" style="endArrow=none;html=1;rounded=0;exitX=0.5;exitY=0;exitDx=0;exitDy=0;" edge="1" parent="1" source="IgmlVVhqipTiIN82mc1l-16">
          <mxGeometry width="50" height="50" relative="1" as="geometry">
            <mxPoint x="-200" y="260" as="sourcePoint" />
            <mxPoint x="-200.5" y="170" as="targetPoint" />
          </mxGeometry>
        </mxCell>
        <mxCell id="IgmlVVhqipTiIN82mc1l-76" value="1" style="text;html=1;strokeColor=none;fillColor=none;align=center;verticalAlign=middle;whiteSpace=wrap;rounded=0;" vertex="1" parent="1">
          <mxGeometry x="-220" y="290" width="60" height="30" as="geometry" />
        </mxCell>
        <mxCell id="IgmlVVhqipTiIN82mc1l-77" value="" style="endArrow=none;html=1;rounded=0;exitX=0.367;exitY=0.933;exitDx=0;exitDy=0;exitPerimeter=0;" edge="1" parent="1" source="IgmlVVhqipTiIN82mc1l-79">
          <mxGeometry width="50" height="50" relative="1" as="geometry">
            <mxPoint x="40" y="310" as="sourcePoint" />
            <mxPoint x="40.5" y="180" as="targetPoint" />
          </mxGeometry>
        </mxCell>
        <mxCell id="IgmlVVhqipTiIN82mc1l-78" value="1" style="text;html=1;strokeColor=none;fillColor=none;align=center;verticalAlign=middle;whiteSpace=wrap;rounded=0;" vertex="1" parent="1">
          <mxGeometry y="170" width="60" height="30" as="geometry" />
        </mxCell>
        <mxCell id="IgmlVVhqipTiIN82mc1l-79" value="1" style="text;html=1;strokeColor=none;fillColor=none;align=center;verticalAlign=middle;whiteSpace=wrap;rounded=0;" vertex="1" parent="1">
          <mxGeometry x="20" y="290" width="60" height="30" as="geometry" />
        </mxCell>
        <mxCell id="IgmlVVhqipTiIN82mc1l-80" value="" style="endArrow=none;html=1;rounded=0;exitX=0.5;exitY=0;exitDx=0;exitDy=0;" edge="1" parent="1" source="IgmlVVhqipTiIN82mc1l-22">
          <mxGeometry width="50" height="50" relative="1" as="geometry">
            <mxPoint x="400" y="310" as="sourcePoint" />
            <mxPoint x="399.5" y="150" as="targetPoint" />
          </mxGeometry>
        </mxCell>
        <mxCell id="IgmlVVhqipTiIN82mc1l-81" value="1" style="text;html=1;strokeColor=none;fillColor=none;align=center;verticalAlign=middle;whiteSpace=wrap;rounded=0;" vertex="1" parent="1">
          <mxGeometry x="360" y="150" width="60" height="30" as="geometry" />
        </mxCell>
        <mxCell id="IgmlVVhqipTiIN82mc1l-82" value="*" style="text;html=1;strokeColor=none;fillColor=none;align=center;verticalAlign=middle;whiteSpace=wrap;rounded=0;" vertex="1" parent="1">
          <mxGeometry x="394" y="290" width="40" height="30" as="geometry" />
        </mxCell>
        <mxCell id="IgmlVVhqipTiIN82mc1l-83" value="" style="endArrow=none;html=1;rounded=0;entryX=-0.012;entryY=0.182;entryDx=0;entryDy=0;entryPerimeter=0;" edge="1" parent="1" target="IgmlVVhqipTiIN82mc1l-31">
          <mxGeometry width="50" height="50" relative="1" as="geometry">
            <mxPoint x="480" y="340" as="sourcePoint" />
            <mxPoint x="640" y="340" as="targetPoint" />
          </mxGeometry>
        </mxCell>
        <mxCell id="IgmlVVhqipTiIN82mc1l-84" value="*" style="text;html=1;strokeColor=none;fillColor=none;align=center;verticalAlign=middle;whiteSpace=wrap;rounded=0;" vertex="1" parent="1">
          <mxGeometry x="470" y="340" width="40" height="30" as="geometry" />
        </mxCell>
        <mxCell id="IgmlVVhqipTiIN82mc1l-85" value="*" style="text;html=1;strokeColor=none;fillColor=none;align=center;verticalAlign=middle;whiteSpace=wrap;rounded=0;" vertex="1" parent="1">
          <mxGeometry x="920" y="340" width="40" height="30" as="geometry" />
        </mxCell>
        <mxCell id="IgmlVVhqipTiIN82mc1l-86" value="" style="endArrow=none;html=1;rounded=0;exitX=0.5;exitY=0;exitDx=0;exitDy=0;" edge="1" parent="1" source="IgmlVVhqipTiIN82mc1l-34">
          <mxGeometry width="50" height="50" relative="1" as="geometry">
            <mxPoint x="1039.5" y="510" as="sourcePoint" />
            <mxPoint x="1039.5" y="430" as="targetPoint" />
          </mxGeometry>
        </mxCell>
        <mxCell id="IgmlVVhqipTiIN82mc1l-87" value="1..*" style="text;html=1;strokeColor=none;fillColor=none;align=center;verticalAlign=middle;whiteSpace=wrap;rounded=0;" vertex="1" parent="1">
          <mxGeometry x="997" y="430" width="60" height="30" as="geometry" />
        </mxCell>
        <mxCell id="IgmlVVhqipTiIN82mc1l-88" value="*" style="text;html=1;strokeColor=none;fillColor=none;align=center;verticalAlign=middle;whiteSpace=wrap;rounded=0;" vertex="1" parent="1">
          <mxGeometry x="1030" y="500" width="40" height="30" as="geometry" />
        </mxCell>
        <mxCell id="IgmlVVhqipTiIN82mc1l-89" value="" style="endArrow=none;html=1;rounded=0;" edge="1" parent="1">
          <mxGeometry width="50" height="50" relative="1" as="geometry">
            <mxPoint x="820" y="540" as="sourcePoint" />
            <mxPoint x="960" y="540" as="targetPoint" />
          </mxGeometry>
        </mxCell>
        <mxCell id="IgmlVVhqipTiIN82mc1l-90" value="" style="endArrow=none;html=1;rounded=0;" edge="1" parent="1">
          <mxGeometry width="50" height="50" relative="1" as="geometry">
            <mxPoint x="820" y="540" as="sourcePoint" />
            <mxPoint x="820" y="440" as="targetPoint" />
          </mxGeometry>
        </mxCell>
        <mxCell id="IgmlVVhqipTiIN82mc1l-91" value="" style="endArrow=none;html=1;rounded=0;exitX=1;exitY=0.478;exitDx=0;exitDy=0;exitPerimeter=0;" edge="1" parent="1" source="IgmlVVhqipTiIN82mc1l-26">
          <mxGeometry width="50" height="50" relative="1" as="geometry">
            <mxPoint x="780" y="440.5" as="sourcePoint" />
            <mxPoint x="820" y="440.5" as="targetPoint" />
          </mxGeometry>
        </mxCell>
        <mxCell id="IgmlVVhqipTiIN82mc1l-92" value="*" style="text;html=1;strokeColor=none;fillColor=none;align=center;verticalAlign=middle;whiteSpace=wrap;rounded=0;" vertex="1" parent="1">
          <mxGeometry x="760" y="440" width="40" height="20" as="geometry" />
        </mxCell>
        <mxCell id="IgmlVVhqipTiIN82mc1l-96" value="" style="endArrow=none;html=1;rounded=0;exitX=1;exitY=0.596;exitDx=0;exitDy=0;exitPerimeter=0;" edge="1" parent="1">
          <mxGeometry width="50" height="50" relative="1" as="geometry">
            <mxPoint x="480" y="438.94399999999996" as="sourcePoint" />
            <mxPoint x="600" y="439.5" as="targetPoint" />
          </mxGeometry>
        </mxCell>
        <mxCell id="IgmlVVhqipTiIN82mc1l-97" value="*" style="text;html=1;strokeColor=none;fillColor=none;align=center;verticalAlign=middle;whiteSpace=wrap;rounded=0;" vertex="1" parent="1">
          <mxGeometry x="567" y="420" width="40" height="20" as="geometry" />
        </mxCell>
        <mxCell id="IgmlVVhqipTiIN82mc1l-99" value="*" style="text;html=1;strokeColor=none;fillColor=none;align=center;verticalAlign=middle;whiteSpace=wrap;rounded=0;" vertex="1" parent="1">
          <mxGeometry x="468" y="440" width="40" height="20" as="geometry" />
        </mxCell>
        <mxCell id="IgmlVVhqipTiIN82mc1l-100" value="*" style="text;html=1;strokeColor=none;fillColor=none;align=center;verticalAlign=middle;whiteSpace=wrap;rounded=0;" vertex="1" parent="1">
          <mxGeometry x="930" y="520" width="40" height="20" as="geometry" />
        </mxCell>
        <mxCell id="IgmlVVhqipTiIN82mc1l-101" value="" style="endArrow=none;html=1;rounded=0;exitX=1;exitY=0.75;exitDx=0;exitDy=0;" edge="1" parent="1" source="IgmlVVhqipTiIN82mc1l-19">
          <mxGeometry width="50" height="50" relative="1" as="geometry">
            <mxPoint x="199" y="439.94399999999996" as="sourcePoint" />
            <mxPoint x="319" y="440.5" as="targetPoint" />
          </mxGeometry>
        </mxCell>
        <mxCell id="IgmlVVhqipTiIN82mc1l-102" value="*" style="text;html=1;strokeColor=none;fillColor=none;align=center;verticalAlign=middle;whiteSpace=wrap;rounded=0;" vertex="1" parent="1">
          <mxGeometry x="286" y="421" width="40" height="20" as="geometry" />
        </mxCell>
        <mxCell id="IgmlVVhqipTiIN82mc1l-103" value="*" style="text;html=1;strokeColor=none;fillColor=none;align=center;verticalAlign=middle;whiteSpace=wrap;rounded=0;" vertex="1" parent="1">
          <mxGeometry x="110" y="440" width="40" height="20" as="geometry" />
        </mxCell>
        <mxCell id="IgmlVVhqipTiIN82mc1l-105" value="" style="endArrow=none;html=1;rounded=0;" edge="1" parent="1">
          <mxGeometry width="50" height="50" relative="1" as="geometry">
            <mxPoint x="40" y="600" as="sourcePoint" />
            <mxPoint x="39.5" y="480" as="targetPoint" />
          </mxGeometry>
        </mxCell>
        <mxCell id="IgmlVVhqipTiIN82mc1l-106" value="*" style="text;html=1;strokeColor=none;fillColor=none;align=center;verticalAlign=middle;whiteSpace=wrap;rounded=0;" vertex="1" parent="1">
          <mxGeometry x="10" y="480" width="40" height="30" as="geometry" />
        </mxCell>
        <mxCell id="IgmlVVhqipTiIN82mc1l-107" value="1..*" style="text;html=1;strokeColor=none;fillColor=none;align=center;verticalAlign=middle;whiteSpace=wrap;rounded=0;" vertex="1" parent="1">
          <mxGeometry x="1007" y="440" width="60" height="30" as="geometry" />
        </mxCell>
        <mxCell id="IgmlVVhqipTiIN82mc1l-109" value="1..*" style="text;html=1;strokeColor=none;fillColor=none;align=center;verticalAlign=middle;whiteSpace=wrap;rounded=0;" vertex="1" parent="1">
          <mxGeometry x="30" y="579" width="60" height="30" as="geometry" />
        </mxCell>
        <mxCell id="IgmlVVhqipTiIN82mc1l-110" value="" style="endArrow=none;html=1;rounded=0;exitX=0.5;exitY=0;exitDx=0;exitDy=0;" edge="1" parent="1" source="IgmlVVhqipTiIN82mc1l-53">
          <mxGeometry width="50" height="50" relative="1" as="geometry">
            <mxPoint x="40" y="890" as="sourcePoint" />
            <mxPoint x="39.5" y="770" as="targetPoint" />
          </mxGeometry>
        </mxCell>
        <mxCell id="IgmlVVhqipTiIN82mc1l-111" value="*" style="text;html=1;strokeColor=none;fillColor=none;align=center;verticalAlign=middle;whiteSpace=wrap;rounded=0;" vertex="1" parent="1">
          <mxGeometry x="10" y="770" width="40" height="30" as="geometry" />
        </mxCell>
        <mxCell id="IgmlVVhqipTiIN82mc1l-112" value="1" style="text;html=1;strokeColor=none;fillColor=none;align=center;verticalAlign=middle;whiteSpace=wrap;rounded=0;" vertex="1" parent="1">
          <mxGeometry x="30" y="896" width="60" height="30" as="geometry" />
        </mxCell>
        <mxCell id="IgmlVVhqipTiIN82mc1l-113" value="" style="endArrow=none;html=1;rounded=0;" edge="1" parent="1">
          <mxGeometry width="50" height="50" relative="1" as="geometry">
            <mxPoint x="-200" y="460" as="sourcePoint" />
            <mxPoint x="-40" y="460" as="targetPoint" />
          </mxGeometry>
        </mxCell>
        <mxCell id="IgmlVVhqipTiIN82mc1l-114" value="" style="endArrow=none;html=1;rounded=0;" edge="1" parent="1">
          <mxGeometry width="50" height="50" relative="1" as="geometry">
            <mxPoint x="-200" y="550" as="sourcePoint" />
            <mxPoint x="-200.5" y="460" as="targetPoint" />
          </mxGeometry>
        </mxCell>
        <mxCell id="IgmlVVhqipTiIN82mc1l-115" value="1" style="text;html=1;strokeColor=none;fillColor=none;align=center;verticalAlign=middle;whiteSpace=wrap;rounded=0;" vertex="1" parent="1">
          <mxGeometry x="-223" y="529" width="60" height="30" as="geometry" />
        </mxCell>
        <mxCell id="IgmlVVhqipTiIN82mc1l-116" value="*" style="text;html=1;strokeColor=none;fillColor=none;align=center;verticalAlign=middle;whiteSpace=wrap;rounded=0;" vertex="1" parent="1">
          <mxGeometry x="-68" y="442" width="40" height="30" as="geometry" />
        </mxCell>
        <mxCell id="IgmlVVhqipTiIN82mc1l-118" value="" style="endArrow=none;html=1;rounded=0;exitX=0.5;exitY=0;exitDx=0;exitDy=0;" edge="1" parent="1" source="IgmlVVhqipTiIN82mc1l-40">
          <mxGeometry width="50" height="50" relative="1" as="geometry">
            <mxPoint x="680" y="670" as="sourcePoint" />
            <mxPoint x="679.5" y="550" as="targetPoint" />
          </mxGeometry>
        </mxCell>
        <mxCell id="IgmlVVhqipTiIN82mc1l-120" value="*" style="text;html=1;strokeColor=none;fillColor=none;align=center;verticalAlign=middle;whiteSpace=wrap;rounded=0;" vertex="1" parent="1">
          <mxGeometry x="649" y="549" width="40" height="30" as="geometry" />
        </mxCell>
        <mxCell id="IgmlVVhqipTiIN82mc1l-122" value="*" style="text;html=1;strokeColor=none;fillColor=none;align=center;verticalAlign=middle;whiteSpace=wrap;rounded=0;" vertex="1" parent="1">
          <mxGeometry x="671" y="660" width="40" height="30" as="geometry" />
        </mxCell>
        <mxCell id="IgmlVVhqipTiIN82mc1l-123" value="" style="endArrow=none;html=1;rounded=0;exitX=1;exitY=0.596;exitDx=0;exitDy=0;exitPerimeter=0;" edge="1" parent="1">
          <mxGeometry width="50" height="50" relative="1" as="geometry">
            <mxPoint x="479" y="757.944" as="sourcePoint" />
            <mxPoint x="599" y="758.5" as="targetPoint" />
          </mxGeometry>
        </mxCell>
        <mxCell id="IgmlVVhqipTiIN82mc1l-124" value="*" style="text;html=1;strokeColor=none;fillColor=none;align=center;verticalAlign=middle;whiteSpace=wrap;rounded=0;" vertex="1" parent="1">
          <mxGeometry x="566" y="739" width="40" height="20" as="geometry" />
        </mxCell>
        <mxCell id="IgmlVVhqipTiIN82mc1l-125" value="*" style="text;html=1;strokeColor=none;fillColor=none;align=center;verticalAlign=middle;whiteSpace=wrap;rounded=0;" vertex="1" parent="1">
          <mxGeometry x="467" y="759" width="40" height="20" as="geometry" />
        </mxCell>
        <mxCell id="IgmlVVhqipTiIN82mc1l-126" value="" style="endArrow=none;html=1;rounded=0;" edge="1" parent="1">
          <mxGeometry width="50" height="50" relative="1" as="geometry">
            <mxPoint x="480" y="784.5" as="sourcePoint" />
            <mxPoint x="520" y="784.5" as="targetPoint" />
          </mxGeometry>
        </mxCell>
        <mxCell id="IgmlVVhqipTiIN82mc1l-127" value="" style="endArrow=none;html=1;rounded=0;" edge="1" parent="1">
          <mxGeometry width="50" height="50" relative="1" as="geometry">
            <mxPoint x="520" y="960" as="sourcePoint" />
            <mxPoint x="520" y="784" as="targetPoint" />
          </mxGeometry>
        </mxCell>
        <mxCell id="IgmlVVhqipTiIN82mc1l-128" value="" style="endArrow=none;html=1;rounded=0;entryX=-0.019;entryY=0.259;entryDx=0;entryDy=0;entryPerimeter=0;" edge="1" parent="1" target="IgmlVVhqipTiIN82mc1l-51">
          <mxGeometry width="50" height="50" relative="1" as="geometry">
            <mxPoint x="520" y="960" as="sourcePoint" />
            <mxPoint x="560" y="960" as="targetPoint" />
          </mxGeometry>
        </mxCell>
        <mxCell id="IgmlVVhqipTiIN82mc1l-129" value="*" style="text;html=1;strokeColor=none;fillColor=none;align=center;verticalAlign=middle;whiteSpace=wrap;rounded=0;" vertex="1" parent="1">
          <mxGeometry x="470" y="787" width="40" height="20" as="geometry" />
        </mxCell>
        <mxCell id="IgmlVVhqipTiIN82mc1l-130" value="*" style="text;html=1;strokeColor=none;fillColor=none;align=center;verticalAlign=middle;whiteSpace=wrap;rounded=0;" vertex="1" parent="1">
          <mxGeometry x="572" y="946" width="40" height="20" as="geometry" />
        </mxCell>
        <mxCell id="IgmlVVhqipTiIN82mc1l-133" value="" style="endArrow=none;html=1;rounded=0;exitX=0.5;exitY=0;exitDx=0;exitDy=0;" edge="1" parent="1" source="IgmlVVhqipTiIN82mc1l-47">
          <mxGeometry width="50" height="50" relative="1" as="geometry">
            <mxPoint x="399.5" y="910" as="sourcePoint" />
            <mxPoint x="399.5" y="830" as="targetPoint" />
          </mxGeometry>
        </mxCell>
        <mxCell id="IgmlVVhqipTiIN82mc1l-134" value="*" style="text;html=1;strokeColor=none;fillColor=none;align=center;verticalAlign=middle;whiteSpace=wrap;rounded=0;" vertex="1" parent="1">
          <mxGeometry x="371" y="831" width="40" height="20" as="geometry" />
        </mxCell>
        <mxCell id="IgmlVVhqipTiIN82mc1l-135" value="1..*" style="text;html=1;strokeColor=none;fillColor=none;align=center;verticalAlign=middle;whiteSpace=wrap;rounded=0;" vertex="1" parent="1">
          <mxGeometry x="385" y="898" width="60" height="30" as="geometry" />
        </mxCell>
        <mxCell id="IgmlVVhqipTiIN82mc1l-136" value="Class Diagram" style="text;strokeColor=none;fillColor=none;html=1;fontSize=24;fontStyle=1;verticalAlign=middle;align=center;" vertex="1" parent="1">
          <mxGeometry x="-610" y="10" width="100" height="40" as="geometry" />
        </mxCell>
        <mxCell id="IgmlVVhqipTiIN82mc1l-137" value="Project: Fleet management system" style="text;align=center;fontStyle=1;verticalAlign=middle;spacingLeft=3;spacingRight=3;strokeColor=none;rotatable=0;points=[[0,0.5],[1,0.5]];portConstraint=eastwest;html=1;" vertex="1" parent="1">
          <mxGeometry x="-580" y="40" width="80" height="26" as="geometry" />
        </mxCell>
      </root>
    </mxGraphModel>
  </diagram>
</mxfile>
